# This file uses centimeters as units for non-parametric coordinates.

mtllib spaceship.mtl
g default
v -2.141335 0.462529 0.556561
v -0.996366 0.462529 0.556561
v -1.934592 1.030147 -0.115851
v -1.203106 1.030147 -0.115851
v -3.995736 2.045994 -5.683645
v 0.858038 2.045994 -5.683645
v -3.995736 1.328083 -4.820842
v 0.858038 1.328083 -4.820842
v -1.598289 0.648356 0.075865
v -5.547798 1.746100 -4.544636
v 2.133191 1.746333 -4.539838
v -5.533461 1.613263 -4.567778
v 2.147524 1.613495 -4.562984
v -1.761608 1.104802 -1.010328
v -1.350783 1.104805 -1.010327
v -1.687427 1.564575 -1.221745
v -1.424963 1.564575 -1.221745
v -2.614189 2.184302 -4.025768
v -0.498201 2.184302 -4.025768
v -2.614189 1.447850 -3.838336
v -0.498201 1.447850 -3.838336
vt 0.427521 0.732168
vt 0.450819 0.540103
vt 0.500835 0.527374
vt 0.458746 0.717809
vt 0.371369 0.719438
vt 0.348071 0.527374
vt 0.379297 0.541732
vt 0.421386 0.732168
vt 0.800916 0.047395
vt 0.850595 0.047395
vt 0.990577 0.425532
vt 0.660933 0.425532
vt 0.786875 0.001728
vt 0.864635 0.001728
vt 0.990577 0.366934
vt 0.660933 0.366934
vt 0.668364 0.488121
vt 0.998008 0.488121
vt 0.872066 0.853327
vt 0.794305 0.853327
vt 0.668364 0.429523
vt 0.998008 0.429523
vt 0.017779 0.255151
vt 0.331254 0.001728
vt 0.331580 0.523383
vt 0.339356 0.523382
vt 0.339681 0.001728
vt 0.654729 0.256125
vt 0.111327 0.527374
vt 0.129152 0.527374
vt 0.192093 0.717810
vt 0.048386 0.717810
vt 0.198228 0.527374
vt 0.341936 0.527374
vt 0.284033 0.719438
vt 0.256132 0.719438
vt 0.002008 0.524356
vt 0.001992 0.002701
vt 0.011014 0.001728
vt 0.011029 0.523382
vt 0.058707 0.721801
vt 0.086608 0.721801
vt 0.081570 0.753027
vt 0.063745 0.753027
vt 0.001992 0.865509
vt 0.001992 0.721801
vt 0.052008 0.721801
vt 0.052008 0.865509
vt 0.653207 0.842747
vt 0.587675 0.527374
vt 0.662228 0.841175
vt 0.506970 0.842421
vt 0.572518 0.527374
vt 0.581539 0.528946
vn 0.000000 0.764141 0.645050
vn 0.000000 0.764141 0.645050
vn 0.000000 0.764141 0.645050
vn 0.000000 0.764141 0.645050
vn 0.000000 0.983760 0.179488
vn 0.000000 0.983760 0.179488
vn 0.000000 0.983760 0.179488
vn 0.000000 0.983760 0.179488
vn 0.000000 -0.768699 -0.639611
vn 0.000000 -0.768699 -0.639611
vn 0.000000 -0.768699 -0.639611
vn 0.000000 -0.768699 -0.639611
vn 0.000000 -0.987292 -0.158916
vn 0.000000 -0.987292 -0.158916
vn 0.000000 -0.987292 -0.158916
vn 0.000000 -0.987292 -0.158916
vn 0.748971 0.554193 0.363199
vn 0.748971 0.554193 0.363199
vn 0.748971 0.554193 0.363199
vn 0.748971 0.554193 0.363199
vn -0.748969 0.554194 0.363199
vn -0.748969 0.554194 0.363199
vn -0.748969 0.554194 0.363199
vn -0.748969 0.554194 0.363199
vn -0.000174 0.972885 0.231288
vn -0.000174 0.972885 0.231288
vn -0.000174 0.972885 0.231288
vn 0.000610 0.171706 -0.985148
vn 0.000610 0.171706 -0.985148
vn 0.000610 0.171706 -0.985148
vn 0.000610 0.171706 -0.985148
vn 0.000157 -0.979060 -0.203573
vn 0.000157 -0.979060 -0.203573
vn 0.000157 -0.979060 -0.203573
vn 0.780287 -0.024696 0.624934
vn 0.780287 -0.024696 0.624934
vn 0.780287 -0.024696 0.624934
vn -0.768154 -0.189461 0.611591
vn -0.768154 -0.189461 0.611591
vn -0.768154 -0.189461 0.611591
vn -0.000004 0.417778 0.908549
vn -0.000004 0.417778 0.908549
vn -0.000004 0.417778 0.908549
vn -0.000004 0.417778 0.908549
vn 0.000000 0.976436 0.215806
vn 0.000000 0.976436 0.215806
vn 0.000000 0.976436 0.215806
vn 0.000000 0.976436 0.215806
vn 0.000000 -0.246643 -0.969106
vn 0.000000 -0.246643 -0.969106
vn 0.000000 -0.246643 -0.969106
vn 0.000000 -0.246643 -0.969106
vn 0.000001 -0.992723 -0.120421
vn 0.000001 -0.992723 -0.120421
vn 0.000001 -0.992723 -0.120421
vn 0.000001 -0.992723 -0.120421
vn 0.931939 0.165388 0.322703
vn 0.931939 0.165388 0.322703
vn 0.931939 0.165388 0.322703
vn 0.931939 0.165388 0.322703
vn -0.931939 0.165388 0.322703
vn -0.931939 0.165388 0.322703
vn -0.931939 0.165388 0.322703
vn -0.931939 0.165388 0.322703
s off
g pCube5
usemtl initialShadingGroup
f 1/13/1 2/14/2 4/10/3 3/9/4
f 3/9/5 4/10/6 6/11/7 5/12/8
f 5/21/9 6/22/10 8/18/11 7/17/12
f 7/17/13 8/18/14 2/19/15 1/20/16
f 2/14/17 8/15/18 6/11/19 4/10/20
f 7/16/21 1/13/22 3/9/23 5/12/24
f 9/23/25 11/24/26 10/25/27
f 10/37/28 11/38/29 13/39/30 12/40/31
f 12/26/32 13/27/33 9/28/34
f 9/52/35 13/53/36 11/54/37
f 12/49/38 9/50/39 10/51/40
f 14/41/41 15/42/42 17/43/43 16/44/44
f 16/29/45 17/30/46 19/31/47 18/32/48
f 18/45/49 19/46/50 21/47/51 20/48/52
f 20/33/53 21/34/54 15/35/55 14/36/56
f 15/1/57 21/2/58 19/3/59 17/4/60
f 20/5/61 14/6/62 16/7/63 18/8/64
